<?xml version="1.0" encoding="UTF-8"?>
<svg width="402px" height="874px" viewBox="0 0 402 874" version="1.1" xmlns="http://www.w3.org/2000/svg" xmlns:xlink="http://www.w3.org/1999/xlink">
    <title>iPhone 17 - Select Player Copy 3</title>
    <defs>
        <linearGradient x1="50%" y1="53.3093704%" x2="50%" y2="100%" id="linearGradient-1">
            <stop stop-color="#B7EBFF" offset="0%"></stop>
            <stop stop-color="#0091FF" offset="100%"></stop>
        </linearGradient>
        <path d="M99.2,0 L302.8,0 C337.523255,0 354.884883,0 368.147411,6.7575955 C379.813461,12.7017447 389.298255,22.1865393 395.242404,33.852589 C402,47.1151169 402,64.4767446 402,99.2 L402,774.8 C402,809.523255 402,826.884883 395.242404,840.147411 C389.298255,851.813461 379.813461,861.298255 368.147411,867.242404 C354.884883,874 337.523255,874 302.8,874 L99.2,874 C64.4767446,874 47.1151169,874 33.852589,867.242404 C22.1865393,861.298255 12.7017447,851.813461 6.7575955,840.147411 C0,826.884883 0,809.523255 0,774.8 L0,99.2 C0,64.4767446 0,47.1151169 6.7575955,33.852589 C12.7017447,22.1865393 22.1865393,12.7017447 33.852589,6.7575955 C47.1151169,0 64.4767446,0 99.2,0 Z" id="path-2"></path>
        <path d="" id="path-3"></path>
    </defs>
    <g id="iPhone-17---Select-Player-Copy-3" stroke="none" fill="none" xlink:href="#path-2">
        <use fill="url(#linearGradient-1)" fill-rule="evenodd" xlink:href="#path-2"></use>
        <g id="Group" stroke-width="1" fill-rule="evenodd" transform="translate(0, 794.8231)">
            <path d="M0,16.6768762 L54.6225402,8.65103178 C93.4011978,2.95317389 132.9579,5.83722646 170.5,17.0995795 C208.465322,28.488896 247.084083,37.5740316 286.145212,44.3053316 L313.209452,48.9692397 C344.209449,54.3113864 374.17387,64.505651 402,79.1768762 L0,79.1768762 L0,16.6768762 Z" id="Path" fill="#856357"></path>
            <path d="M402,9.72643613 L337.187553,16.9400456 C290.376037,22.1501557 244.080754,31.2563646 198.783317,44.1639396 L198.783206,44.1639715 C172.964204,51.5211361 146.629054,56.9285698 120,60.3406386 C93.3363155,63.7571448 66.747872,67.7372045 40.2525059,72.2781476 L0,79.1768762 L403.392202,79.1768762 L402,9.72643613 Z" id="Path" fill="#A9846D"></path>
        </g>
        <g id="Stack-8" transform="translate(49, 125)" xlink:href="#path-3"></g>
    </g>
</svg>